<svg width="356" height="256" viewBox="0 0 356 256" fill="none" xmlns="http://www.w3.org/2000/svg">
<path d="M39.1802 139.619H26.8301V151.91H39.1802V139.619Z" fill="#084388"/>
<path d="M17.4414 161.268H48.5878V130.261H17.4414V161.268ZM21.2161 134.004H44.8324V157.544H21.2161V134.004Z" fill="#084388"/>
<path d="M39.1802 27.071H26.8301V39.362H39.1802V27.071Z" fill="#084388"/>
<path d="M48.5878 17.7129H17.4414V48.72H48.5878V17.7129ZM44.8131 44.9768H21.1968V21.4561H44.8131V44.9768Z" fill="#084388"/>
<path d="M152.17 27.071H139.82V39.362H152.17V27.071Z" fill="#084388"/>
<path d="M130.432 17.7129V48.72H161.559V17.7129H130.432ZM157.803 44.9768H134.187V21.4561H157.803V44.9768Z" fill="#084388"/>
<path d="M27.6429 124.916V119.842H22.5518H17.4414V124.916H22.5518H27.6429Z" fill="#084388"/>
<path d="M58.7699 114.767V109.692H53.6788V114.767H48.5878V109.692V104.598H43.4773H38.3863H33.2759V109.692H38.3863H43.4773V114.767V119.841H38.3863V114.767H33.2759V119.841V124.916H38.3863H43.4773H48.5878V119.841H53.6788H58.7699V114.767Z" fill="#084388"/>
<path d="M22.5518 114.767H27.6429V109.692V104.598H22.5518H17.4414V109.692H22.5518V114.767Z" fill="#084388"/>
<path d="M63.8804 104.598H58.77V109.673H63.8804V104.598Z" fill="#084388"/>
<path d="M28.1658 79.2061H23.0747V84.2806H28.1658V79.2061Z" fill="#084388"/>
<path d="M48.5877 63.9632H43.4773V58.8886V53.814H38.3862V58.8886V63.9632V69.0377H43.4773V74.1316H48.5877V69.0377V63.9632Z" fill="#084388"/>
<path d="M27.6429 69.0377V74.1316H32.7533V69.0377V63.9632H27.6429V58.8886V53.814H22.5518V58.8886V63.9632H17.4414V69.0377H22.5518H27.6429Z" fill="#084388"/>
<path d="M59.0408 151.119V146.044H64.1512V140.969H59.0408H53.9497V146.044V151.119V156.193V161.268H59.0408V156.193H64.1512H69.2422V151.119H64.1512H59.0408Z" fill="#084388"/>
<path d="M69.2425 135.876H74.3335V130.801H69.2425V125.727H64.1514V130.801H59.041V135.876H64.1514V140.97H69.2425V135.876Z" fill="#084388"/>
<path d="M74.3332 146.044H69.2422V151.119H74.3332V156.193H79.4436V161.268H84.5347V156.193V151.119H79.4436V146.044V140.969H74.3332V146.044Z" fill="#084388"/>
<path d="M89.6453 110.483H84.5349V115.558H89.6453H94.7364V120.652V125.726H89.6453V120.652H84.5349V125.726V130.801H79.4438V135.876V140.97H84.5349V135.876H89.6453V140.97H94.7364V135.876V130.801H99.8274V125.726H104.938H110.029V120.652V115.558H104.938V120.652H99.8274V115.558V110.483H94.7364H89.6453Z" fill="#084388"/>
<path d="M89.6262 146.044H84.5352V151.119H89.6262V146.044Z" fill="#084388"/>
<path d="M74.3332 120.652H79.4436V115.558H74.3332V110.483H69.2422V115.558V120.652V125.726H74.3332V120.652Z" fill="#084388"/>
<path d="M59.0408 125.727H53.9497V130.82H59.0408V125.727Z" fill="#084388"/>
<path d="M79.4246 105.409H74.3335V110.484H79.4246V105.409Z" fill="#084388"/>
<path d="M68.9714 99.5239H63.8804V104.599H68.9714V99.5239Z" fill="#084388"/>
<path d="M48.5877 84.2808H53.6788V89.3554V94.4493H58.7698V89.3554V84.2808V79.2062H53.6788V74.1316H48.5877V79.2062H43.4773H38.3862V84.2808H43.4773H48.5877Z" fill="#084388"/>
<path d="M58.7702 104.598V99.5238H53.6791V94.4492H48.5881V89.3554H43.4776V94.4492H38.3866H33.2762V89.3554H38.3866V84.2808H33.2762H28.1851V89.3554V94.4492H23.0747V99.5238H28.1851H33.2762H38.3866H43.4776H48.5881V104.598H53.6791H58.7702Z" fill="#084388"/>
<path d="M79.1729 84.2808H74.0818V79.2062V74.1316H68.9714V79.2062V84.2808H63.8804V89.3554H68.9714V94.4493H74.0818V89.3554H79.1729H84.264V84.2808V79.2062H79.1729V84.2808Z" fill="#084388"/>
<path d="M89.3746 74.1316H84.2642V79.2062H89.3746V74.1316Z" fill="#084388"/>
<path d="M89.6453 100.315H84.5349V95.2405H79.4438V100.315V105.409H84.5349H89.6453H94.7364H99.8274V110.484H104.938V105.409V100.315H99.8274H94.7364V95.2405H89.6453V100.315Z" fill="#084388"/>
<path d="M140.633 84.2807V80.0165V79.2061H135.523V80.0165V84.2807V85.091H140.633V84.2807Z" fill="#084388"/>
<path d="M94.7363 85.0912V90.1658V95.2404H99.8274V90.1658H104.938V85.0912H99.8274V80.0166H94.7363V85.0912Z" fill="#084388"/>
<path d="M104.919 74.9226H99.8276V79.9972H104.919V74.9226Z" fill="#084388"/>
<path d="M94.4656 69.0376H89.3745V74.1122H94.4656V69.0376Z" fill="#084388"/>
<path d="M74.0816 58.8884H68.9712V63.963V69.0376H74.0816V74.1315H79.1727H84.2637V69.0376H79.1727V63.963H74.0816V58.8884Z" fill="#084388"/>
<path d="M63.8802 74.1314V69.0376V63.963V58.8884H58.7698V53.8138H63.8802H68.9712H74.0817H79.1727V58.8884V63.963H84.2444H84.2638H89.3548H94.4459H99.5369V58.8884H94.4459H89.3548V53.8138H84.2638V48.7199H79.1727H74.0817V43.6453H68.9712V38.5707H74.0817V33.4961H68.9712H63.8802H58.7698V30.2931V28.4022V28.1514V23.0575H63.8802H66.0289H68.9712H74.0817V17.9829H68.9712H63.8802H62.2348H53.6787V23.3276V28.4022V33.4961V38.5707H58.7698H63.8802V43.6453V48.7199H58.7698H53.6787V53.8138V58.8884V63.963H58.7698V69.0376H53.6787V74.1314H58.7698H63.8802Z" fill="#084388"/>
<path d="M114.849 38.5708H109.739H104.647V43.6454H109.739H114.849V38.5708Z" fill="#084388"/>
<path d="M104.647 48.72V53.8139V58.8884H109.739H114.849V53.8139H109.739V48.72H104.647Z" fill="#084388"/>
<path d="M109.739 33.4961H114.849H119.94V28.5952H125.05V23.5013H119.94H114.849V28.4022H109.739V23.3276H104.648V28.4022H99.5371V33.4961H104.648H109.739Z" fill="#084388"/>
<path d="M99.5373 33.4963H94.4463V38.5709H99.5373V33.4963Z" fill="#084388"/>
<path d="M79.1731 43.6454H84.2641H89.3552V48.72V53.8139H94.4463V48.72H99.5373V43.6454H94.4463V38.5708H89.3746H89.3552H84.2641V33.4962H89.3552H94.4463V28.4023H89.3552H84.2448V33.4962H79.1731V38.5708H74.082V43.6454H79.1731Z" fill="#084388"/>
<path d="M79.1731 23.0576H74.082V28.1322H79.1731V23.0576Z" fill="#084388"/>
<path d="M89.3743 23.0575H94.4654H99.5758V17.9829H94.4654H89.3743H84.2639H79.1729V23.0575H84.2639H89.3743Z" fill="#084388"/>
<path d="M140.904 115.558H135.794V120.652H140.904H145.995V125.727H140.904V130.801V135.876H145.995V130.801V125.727H151.086V120.652V115.558H145.995H140.904Z" fill="#084388"/>
<path d="M161.288 120.652H156.197V125.726H161.288V120.652Z" fill="#084388"/>
<path d="M140.904 105.409H135.794V110.483H140.904H145.995H151.086V115.558H156.197V110.483H161.288V105.409V100.315H155.926V105.409H151.086H145.995V100.315H140.904V105.409Z" fill="#084388"/>
<path d="M145.724 74.1316H140.633V79.2062H145.724V74.1316Z" fill="#084388"/>
<path d="M120.23 146.044H125.341V140.97V135.876H120.23V140.97V146.044Z" fill="#084388"/>
<path d="M130.432 120.652H125.341V115.558V110.483H120.231V115.558H115.139V120.652H120.231V125.726H115.139V130.801H110.029V135.876H104.938V140.97H110.029H115.139V135.876H120.231V130.801H125.341V125.726H130.432V120.652Z" fill="#084388"/>
<path d="M135.814 110.483H130.703V115.558H135.814V110.483Z" fill="#084388"/>
<path d="M130.432 105.409H125.341V110.484H130.432V105.409Z" fill="#084388"/>
<path d="M140.633 64.7734H135.523V69.848H140.633V64.7734Z" fill="#084388"/>
<path d="M150.835 54.605H145.724H140.633V59.6796V64.7735H145.724V69.8481H150.835V64.7735V59.6796H155.926H161.288V54.605H155.926H150.835Z" fill="#084388"/>
<path d="M130.432 59.6795H125.341V54.6049V49.5303V44.4557V39.3811H120.231V44.4557V49.5303V54.6049V59.6795V64.7734V69.848H115.139H114.849V64.7734H109.739V69.848H104.938V74.9226H110.029H115.139H120.231H125.341V80.0164H130.432V74.9226V69.848H125.341V64.7734H130.432H135.523V59.6795H130.432Z" fill="#084388"/>
<path d="M156.197 85.0911H161.288V80.0165V74.9226V69.848V64.7734H155.926V69.848V74.9226V80.0165H151.086V85.0911H155.926H156.197Z" fill="#084388"/>
<path d="M23.0745 84.2808H17.7124V89.3554V94.4492H23.0745V89.3554V84.2808Z" fill="#084388"/>
<path d="M115.139 151.119H110.029V146.044H104.938V151.119H99.8274V146.044H94.7363V151.119V156.193V161.268H99.8274V156.193H104.938H110.029H115.139H120.23H125.341V151.119H120.23V146.044H115.139V151.119Z" fill="#084388"/>
<path d="M104.919 140.969H99.8276V146.044H104.919V140.969Z" fill="#084388"/>
<path d="M115.139 80.0166H110.029V85.0912H115.139H120.23V90.1658V95.2404H118.295H115.139H114.849V100.315H115.139H120.23H125.341V95.2404H130.432V100.315H135.523V95.2404H145.995V100.315H151.086V95.2404H156.197V90.1658H151.086V85.0912H145.995V90.1658H135.523V85.0912H130.432V90.1658H125.341V85.0912V80.0166H120.23H115.139Z" fill="#084388"/>
<path d="M115.662 104.058H110.571V109.133H115.662V104.058Z" fill="#084388"/>
<path d="M156.061 146.044H150.951V140.97V135.876H145.86V140.97V146.044H140.769H135.794V140.97H140.904V135.876H135.794H130.703V140.97V146.044V151.119V156.193H125.592V161.287H130.703H135.794V156.193V151.119H140.769H140.904H145.86V156.193H150.951V151.119H156.061H161.152V146.044V140.97H156.061V146.044Z" fill="#084388"/>
<path d="M3.19401 38.4357H0V0H38.5798V3.18368H3.19401V38.4357Z" fill="#084388"/>
<path d="M179 38.4357H175.806V3.18368H140.42V0H179V38.4357Z" fill="#084388"/>
<path d="M179 179H140.42V175.797H175.806V140.564H179V179Z" fill="#084388"/>
<path d="M38.5798 179H0V140.564H3.19401V175.797H38.5798V179Z" fill="#084388"/>
<path d="M177.412 62.188H1.60645V67.3012H177.412V62.188Z" fill="#FF4868"/>
<g clip-path="url(#clip0)">
<path d="M343.655 255.68L126.584 256C119.742 256.016 114.207 250.466 114.191 243.605L114 110.747C113.984 103.902 119.519 98.3359 126.361 98.3199L343.416 98C350.242 97.984 355.793 103.534 355.809 110.395L356 243.253C356.016 250.098 350.482 255.664 343.655 255.68Z" fill="#FF4868"/>
<g opacity="0.3">
<g opacity="0.3">
<path opacity="0.3" d="M343.655 255.68L126.584 256C119.742 256.016 114.207 250.466 114.191 243.605L114 110.747C113.984 103.902 119.519 98.3359 126.361 98.3199L343.416 98C350.242 97.984 355.793 103.534 355.809 110.395L356 243.253C356.016 250.098 350.482 255.664 343.655 255.68Z" fill="#383F47"/>
</g>
</g>
<path d="M320.225 134.721C320.241 143.965 312.777 151.466 303.558 151.482C294.339 151.498 286.859 144.013 286.843 134.769C286.827 125.525 294.292 118.024 303.51 118.008C312.729 117.992 320.209 125.477 320.225 134.721Z" fill="white"/>
<path d="M328.599 151.562C327.02 152.026 325.361 152.266 323.671 152.266C318.998 152.266 314.596 150.459 311.278 147.148C307.961 143.837 306.142 139.423 306.126 134.737C306.126 130.051 307.929 125.637 311.23 122.31C314.532 118.984 318.934 117.16 323.607 117.144C333.256 117.128 341.135 124.997 341.135 134.673C341.135 139.359 339.333 143.774 336.032 147.1C333.942 149.227 331.374 150.747 328.599 151.562ZM319.157 119.431C316.637 120.167 314.324 121.543 312.411 123.462C309.412 126.469 307.769 130.467 307.785 134.721C307.785 138.975 309.444 142.958 312.442 145.965C315.441 148.971 319.428 150.619 323.671 150.603C327.913 150.603 331.901 148.939 334.883 145.933C337.882 142.926 339.524 138.927 339.509 134.673C339.493 125.893 332.363 118.776 323.623 118.792C322.092 118.792 320.593 119.016 319.157 119.431Z" fill="white"/>
<path d="M135.548 199.127L135.564 212.593H134.176V200.358H131.018V199.127H135.548Z" fill="white"/>
<path d="M149.376 211.33V212.562L139.965 212.578V211.602L145.532 206.116C147.047 204.613 147.334 203.701 147.334 202.789C147.334 201.238 146.234 200.279 144.192 200.279C142.613 200.279 141.417 200.758 140.524 201.782L139.551 200.934C140.587 199.703 142.246 199.015 144.304 198.999C147.031 198.999 148.754 200.374 148.754 202.63C148.754 203.925 148.355 205.077 146.553 206.836L141.991 211.346L149.376 211.33Z" fill="white"/>
<path d="M163.507 209.011H160.827V212.546H159.44V209.011L151.864 209.027V208.019L158.961 199.079H160.492L153.634 207.78L159.472 207.764V204.645H160.811V207.764H163.491L163.507 209.011Z" fill="white"/>
<path d="M184.082 208.979H181.402V212.514H180.014V208.979L172.438 208.995V207.987L179.536 199.047H181.067L174.209 207.748H180.03V204.629H181.37V207.748H184.05L184.082 208.979Z" fill="white"/>
<path d="M195.804 208.531C195.804 210.818 194.225 212.61 190.94 212.61C189.01 212.61 187.16 211.938 186.123 210.882L186.793 209.779C187.654 210.674 189.185 211.33 190.924 211.33C193.205 211.33 194.417 210.211 194.417 208.579C194.417 206.852 193.332 205.78 189.919 205.78H187.064L187.75 199.031L195.103 199.015V200.247L188.962 200.263L188.5 204.549H190.222C194.273 204.549 195.804 206.148 195.804 208.531Z" fill="white"/>
<path d="M209.074 208.451C209.074 210.962 207.113 212.594 204.497 212.594C200.924 212.594 198.994 210.115 198.979 205.876C198.979 201.302 201.467 198.903 205.103 198.903C206.315 198.903 207.448 199.111 208.293 199.623L207.735 200.742C207.049 200.279 206.124 200.103 205.119 200.119C202.216 200.119 200.366 201.99 200.366 205.652C200.366 205.956 200.382 206.34 200.43 206.74C201.1 205.253 202.663 204.437 204.529 204.421C207.208 204.421 209.074 205.988 209.074 208.451ZM207.719 208.499C207.719 206.724 206.411 205.604 204.338 205.604C202.28 205.604 200.892 206.884 200.892 208.547C200.892 210.035 202.121 211.426 204.449 211.426C206.379 211.426 207.719 210.29 207.719 208.499Z" fill="white"/>
<path d="M227.448 208.579C227.448 210.834 225.821 212.562 222.584 212.562C220.638 212.562 218.788 211.89 217.751 210.834L218.421 209.731C219.282 210.626 220.845 211.282 222.584 211.282C224.801 211.282 226.029 210.242 226.029 208.563C226.029 206.948 224.896 205.892 222.408 205.892H221.451V204.869L225.167 200.199L218.309 200.215V198.983L226.938 198.967V199.943L223.142 204.741C225.997 204.917 227.432 206.436 227.448 208.579Z" fill="white"/>
<path d="M240.893 208.403C240.893 210.914 238.932 212.546 236.316 212.546C232.743 212.546 230.813 210.067 230.797 205.828C230.797 201.254 233.285 198.855 236.922 198.855C238.134 198.855 239.266 199.063 240.112 199.575L239.554 200.694C238.868 200.231 237.943 200.071 236.938 200.071C234.035 200.071 232.185 201.942 232.185 205.604C232.185 205.908 232.201 206.292 232.249 206.692C232.919 205.205 234.482 204.389 236.348 204.373C239.027 204.373 240.893 205.956 240.893 208.403ZM239.538 208.451C239.538 206.676 238.23 205.557 236.156 205.557C234.099 205.557 232.711 206.836 232.711 208.499C232.711 209.987 233.939 211.378 236.268 211.378C238.198 211.378 239.538 210.243 239.538 208.451Z" fill="white"/>
<path d="M253.238 198.951V199.927L247.64 212.418H246.141L251.643 200.183L244.737 200.199V202.71H243.366V198.967L253.238 198.951Z" fill="white"/>
<path d="M272.425 198.919V199.895L266.827 212.386H265.328L270.83 200.151L263.924 200.167V202.694H262.568V198.935L272.425 198.919Z" fill="white"/>
<path d="M285.648 208.611C285.648 210.994 283.638 212.481 280.432 212.481C277.21 212.481 275.249 211.01 275.249 208.627C275.249 207.012 276.158 205.876 277.832 205.316C276.477 204.773 275.727 203.765 275.711 202.358C275.711 200.166 277.561 198.791 280.4 198.791C283.239 198.791 285.137 200.15 285.137 202.342C285.137 203.749 284.372 204.757 283 205.3C284.707 205.86 285.648 207.012 285.648 208.611ZM284.228 208.595C284.228 206.948 282.809 205.908 280.432 205.908C278.056 205.908 276.652 206.948 276.652 208.611C276.652 210.29 278.056 211.33 280.432 211.314C282.809 211.314 284.228 210.274 284.228 208.595ZM280.432 204.805C282.521 204.805 283.766 203.861 283.766 202.39C283.766 200.87 282.442 199.943 280.416 199.959C278.375 199.959 277.099 200.886 277.099 202.39C277.099 203.877 278.327 204.821 280.432 204.805Z" fill="white"/>
<path d="M298.678 205.493C298.678 210.067 296.19 212.466 292.554 212.466C291.341 212.466 290.209 212.258 289.364 211.746L289.922 210.626C290.608 211.09 291.533 211.266 292.538 211.25C295.44 211.25 297.291 209.379 297.291 205.716C297.291 205.413 297.275 205.029 297.227 204.613C296.557 206.1 294.994 206.916 293.128 206.932C290.464 206.932 288.598 205.365 288.598 202.902C288.598 200.391 290.56 198.759 293.176 198.759C296.732 198.759 298.678 201.238 298.678 205.493ZM296.78 202.822C296.78 201.334 295.552 199.943 293.223 199.943C291.294 199.943 289.954 201.078 289.954 202.87C289.954 204.645 291.262 205.78 293.335 205.764C295.377 205.764 296.78 204.501 296.78 202.822Z" fill="white"/>
<path d="M312.283 198.855L312.299 212.322H310.911L310.895 200.087H307.737V198.855H312.283Z" fill="white"/>
<path d="M326.111 211.074V212.306L316.701 212.322V211.346L322.267 205.86C323.782 204.357 324.069 203.445 324.069 202.534C324.069 200.982 322.969 200.007 320.927 200.023C319.348 200.023 318.152 200.502 317.259 201.526L316.286 200.678C317.323 199.447 318.982 198.759 321.039 198.743C323.766 198.743 325.489 200.119 325.489 202.374C325.489 203.669 325.09 204.821 323.288 206.596L318.726 211.106L326.111 211.074Z" fill="white"/>
<path d="M338.137 208.419C338.137 210.674 336.51 212.402 333.272 212.402C331.342 212.402 329.476 211.73 328.439 210.674L329.109 209.571C329.971 210.466 331.534 211.122 333.272 211.122C335.489 211.122 336.717 210.083 336.717 208.403C336.717 206.788 335.585 205.732 333.081 205.732H332.124V204.709L335.84 200.039L328.966 200.055V198.823L337.594 198.807V199.783L333.798 204.581C336.701 204.741 338.137 206.26 338.137 208.419Z" fill="white"/>
<path d="M342.582 222.297L235.067 222.467L235.077 228.304L342.591 228.135L342.582 222.297Z" fill="white"/>
<path d="M342.614 233.966L287.461 234.051L287.47 239.905L342.623 239.82L342.614 233.966Z" fill="white"/>
<path d="M164.544 187.548L135.261 187.596C130.89 187.596 127.334 184.061 127.334 179.663L127.302 161.75C127.302 157.368 130.843 153.801 135.213 153.801L164.496 153.753C168.866 153.753 172.423 157.288 172.423 161.686L172.454 179.599C172.454 183.981 168.914 187.532 164.544 187.548Z" fill="#263238"/>
<path d="M127.334 178.239V176.064L150.556 176.032C153.236 176.032 155.421 173.841 155.405 171.154C155.405 168.467 153.188 166.26 150.54 166.292L127.318 166.324V164.149L150.54 164.117C154.416 164.117 157.574 167.268 157.574 171.154C157.574 175.041 154.432 178.207 150.556 178.207L127.334 178.239Z" fill="white"/>
<path d="M172.439 170.067H156.489V172.242H172.439V170.067Z" fill="white"/>
<path d="M248.606 125.825L132.574 125.992L132.588 135.972L248.62 135.805L248.606 125.825Z" fill="white"/>
</g>
<defs>
<clipPath id="clip0">
<rect width="242" height="158" fill="white" transform="translate(114 98)"/>
</clipPath>
</defs>
</svg>
