<svg xmlns="http://www.w3.org/2000/svg" width="250" height="250" preserveAspectRatio="xMidYMid meet" viewBox="0 0 250 250"><path fill="#00A8E5" d="M125 246.9C57.8 246.9 3.1 192.2 3.1 125S57.8 3.1 125 3.1 246.9 57.8 246.9 125 192.2 246.9 125 246.9zm0-233.8C63.3 13.1 13.1 63.3 13.1 125S63.3 236.9 125 236.9 236.9 186.7 236.9 125 186.7 13.1 125 13.1z"/><path fill="#00A8E5" d="M199.7 100.2v-7c0-.2-.1-.4-.2-.6L189.4 76V58.1c0-2.7-2.2-4.8-4.8-4.8H65.4c-2.7 0-4.8 2.2-4.8 4.8V76L50.4 92.6c-.1.2-.2.4-.2.6v7c-1.9.1-3.5 1.7-3.5 3.6v12.8c0 2 1.6 3.6 3.6 3.6h2.1c2 0 3.6-1.6 3.6-3.6v-12.8c0-1.9-1.5-3.5-3.5-3.6v-6.6l7.9-13v108.7c0 2.7 2.2 4.8 4.8 4.8H70v5c0 2.7 2.2 4.8 4.8 4.8h10.1c2.7 0 4.8-2.2 4.8-4.8v-5h70.5v5c0 2.7 2.2 4.8 4.8 4.8h10.1c2.7 0 4.8-2.2 4.8-4.8v-5h4.6c2.7 0 4.8-2.2 4.8-4.8V80.6l7.9 13v6.6c-1.9.1-3.5 1.7-3.5 3.6v12.8c0 2 1.6 3.6 3.6 3.6h2.1c2 0 3.6-1.6 3.6-3.6v-12.8c.2-1.9-1.3-3.5-3.3-3.6zM97.8 66.6c0-2.7 2.2-4.8 4.8-4.8h44.7c2.7 0 4.8 2.2 4.8 4.8V71c0 2.7-2.2 4.8-4.8 4.8h-44.7c-2.7 0-4.8-2.2-4.8-4.8v-4.4zM78.5 181.7c-3.4 0-6.2-2.8-6.2-6.2s2.8-6.2 6.2-6.2c3.4 0 6.2 2.8 6.2 6.2s-2.8 6.2-6.2 6.2zm62.2 8.5h-31.4c-2.3 0-4.2-1.9-4.2-4.2 0-2.3 1.9-4.2 4.2-4.2h31.4c2.3 0 4.2 1.9 4.2 4.2 0 2.3-1.9 4.2-4.2 4.2zm30.8-8.5c-3.4 0-6.2-2.8-6.2-6.2s2.8-6.2 6.2-6.2c3.4 0 6.2 2.8 6.2 6.2s-2.7 6.2-6.2 6.2zm12.1-33.4c0 2.7-2.2 4.8-4.8 4.8H71.2c-2.7 0-4.8-2.2-4.8-4.8V87.9c0-2.7 2.2-4.8 4.8-4.8h107.5c2.7 0 4.8 2.2 4.8 4.8v60.4z"/></svg>
