<svg width="143" height="48" viewBox="0 0 143 48" fill="none" xmlns="http://www.w3.org/2000/svg">
<path d="M134.179 1.97647C136.75 1.97647 138.496 2.46776 139.514 3.47576C140.533 4.48518 141.028 6.21882 141.028 8.77553V39.2711C141.028 41.8207 140.534 43.5445 139.52 44.5412C138.506 45.5379 136.759 46.0235 134.179 46.0235H8.72511C6.16238 46.0235 4.43511 45.5435 3.44468 44.5539C2.45425 43.5656 1.97241 41.8405 1.97241 39.2795V8.77553C1.97241 5.84329 2.29223 4.22965 3.04033 3.37553C3.87861 2.42118 5.6876 1.97647 8.73357 1.97647H134.179ZM134.179 0H8.73357C1.24685 0 0 2.59765 0 8.77553V39.2795C0 45.4532 2.56414 48 8.72511 48H134.18C140.346 48 143 45.4489 143 39.2711V8.77553C143 2.59765 140.344 0 134.179 0Z" fill="#646D84"/>
<path fill-rule="evenodd" clip-rule="evenodd" d="M37.2827 29.8788C36.5628 31.4783 36.2176 32.1927 35.2906 33.6059C33.9959 35.5795 32.1728 38.0374 29.913 38.0586C27.9053 38.0769 27.3897 36.7485 24.6649 36.764C21.9402 36.7795 21.371 38.0812 19.362 38.0628C17.1021 38.0416 15.3749 35.8223 14.0801 33.8487C10.4622 28.3287 10.0832 21.8515 12.3148 18.4082C13.9012 15.9616 16.4019 14.5287 18.7547 14.5287C21.1498 14.5287 22.6559 15.8445 24.6354 15.8445C26.5556 15.8445 27.7264 14.5259 30.4962 14.5259C32.5898 14.5259 34.8074 15.668 36.3867 17.6431C31.2105 20.4878 32.0516 27.8981 37.2827 29.8788Z" fill="#646D84"/>
<path fill-rule="evenodd" clip-rule="evenodd" d="M28.3956 12.3234C29.4015 11.0302 30.1651 9.20199 29.889 7.33423C28.2462 7.44717 26.3231 8.4947 25.2002 9.86129C24.1816 11.1008 23.3405 12.9403 23.6688 14.7276C25.4623 14.7827 27.3178 13.7098 28.3956 12.3234Z" fill="#646D84"/>
<path fill-rule="evenodd" clip-rule="evenodd" d="M130.231 32.4706H122.956C122.984 33.4589 123.336 34.3257 124.013 34.8946C124.624 35.4057 125.417 35.6386 126.391 35.6386C127.47 35.6386 128.448 35.4551 129.333 35.105L129.714 36.7892C128.686 37.2424 127.463 37.4598 126.053 37.4598C124.365 37.4598 123.036 36.9629 122.071 35.9662C121.106 34.9695 120.62 33.6297 120.62 31.9511C120.62 30.2979 121.071 28.9285 121.967 27.8287C122.914 26.6612 124.186 26.0767 125.785 26.0767C127.362 26.0767 128.549 26.6598 129.355 27.8287C129.996 28.7619 130.32 29.9563 130.32 31.3215C130.32 31.752 130.289 32.1883 130.231 32.4706ZM119.895 28.4598C119.754 28.416 119.38 28.3977 119.113 28.3977C118.26 28.3977 117.594 28.7196 117.129 29.3633C116.723 29.9351 116.513 30.6438 116.513 31.5205V37.1295H114.118V29.7615C114.118 28.5092 114.066 27.3883 114.024 26.2589H116.133L116.223 28.5177H116.289C116.543 27.8118 116.944 27.1694 117.501 26.7389C118.039 26.345 118.645 26.1304 119.273 26.1304C119.496 26.1304 119.752 26.1163 119.893 26.1459V28.4598H119.895ZM111.129 35.8433C110.123 36.9502 108.791 37.505 107.133 37.505C105.528 37.505 104.249 36.9728 103.3 35.9083C102.35 34.8466 101.878 33.4984 101.878 31.8819C101.878 30.1892 102.367 28.8 103.347 27.7215C104.329 26.6372 105.647 26.105 107.308 26.105C108.915 26.105 110.202 26.6316 111.174 27.7017C112.099 28.7309 112.563 30.0692 112.563 31.7026C112.561 33.3855 112.087 34.7605 111.129 35.8433ZM101.157 28.2353H98.6207V33.4575C98.6207 34.8057 99.0378 35.4749 99.9817 35.4749C100.416 35.4749 100.742 35.4438 101.03 35.369L101.085 37.2085C100.604 37.3892 99.9704 37.4796 99.1927 37.4796C98.2403 37.4796 97.4598 37.1916 96.9231 36.6015C96.3792 36.0198 96.0862 35.0358 96.0862 33.6565V28.2353H94.5364V26.2589H96.0862V24.3219L98.6222 23.6019V26.2589H101.158V28.2353H101.157ZM92.6345 36.1525C91.644 37.0391 90.2718 37.4796 88.5121 37.4796C86.8807 37.4796 85.576 37.1633 84.5912 36.5365L85.1548 34.512C86.2171 35.1389 87.3836 35.4565 88.6516 35.4565C89.5688 35.4565 90.2774 35.2476 90.7874 34.8382C91.2932 34.4273 91.5482 33.8767 91.5482 33.1779C91.5482 32.5709 91.3383 32.0542 90.9213 31.6306C90.4986 31.2113 89.8083 30.8245 88.8348 30.4617C86.1889 29.4749 84.8632 28.0278 84.8632 26.1233C84.8632 24.8796 85.3253 23.856 86.2622 23.0626C87.1977 22.2692 88.436 21.8711 89.9787 21.8711C91.3552 21.8711 92.5006 22.1125 93.415 22.5897L92.8035 24.5704C91.9512 24.1073 90.9805 23.8716 89.8999 23.8716C89.0447 23.8716 88.3755 24.089 87.8922 24.4998C87.4893 24.8796 87.2864 25.337 87.2864 25.8749C87.2864 26.4706 87.5189 26.9676 87.981 27.3629C88.3867 27.7215 89.1193 28.1083 90.1788 28.5276C91.4848 29.0485 92.44 29.6669 93.0557 30.3742C93.6672 31.0786 93.9757 31.9539 93.9757 33.0029C93.9771 34.2946 93.5263 35.3478 92.6345 36.1525ZM78.6261 36.0678C77.723 37.0236 76.5959 37.5036 75.2547 37.5036C73.8106 37.5036 72.8385 36.9869 72.1341 35.9478V41.7883H69.739V29.9153C69.739 28.7464 69.6939 27.6706 69.6361 26.2589H71.7635L71.9044 28.0942H71.9467C72.761 26.8236 73.9839 26.1233 75.6294 26.1233C76.9172 26.1233 77.9907 26.6189 78.8515 27.641C79.7138 28.6589 80.1435 29.9986 80.1435 31.6631C80.142 33.5266 79.6377 34.9864 78.6261 36.0678ZM66.6395 36.0678C65.7378 37.0236 64.6135 37.5036 63.2751 37.5036C61.8268 37.5036 60.8631 36.9869 60.1587 35.9478V41.7883H57.7636V29.9153C57.7636 28.7464 57.7087 27.6706 57.6467 26.2589H59.7797L59.9135 28.0942H59.9558C60.7687 26.8236 61.993 26.1233 63.6414 26.1233C64.9277 26.1233 65.9998 26.6189 66.8649 27.641C67.7229 28.6589 68.154 29.9986 68.154 31.6631C68.1554 33.5266 67.651 34.9864 66.6395 36.0678ZM53.6737 37.1295L52.2606 32.753H47.3422L45.9939 37.1295H43.4819L48.3496 22.0236H51.3617L56.2575 37.1295H53.6737ZM125.606 27.761C124.814 27.761 124.172 28.1676 123.676 28.8226C123.273 29.3464 123.031 29.9295 122.957 30.7765H128.008C128.021 29.9295 127.867 29.3718 127.539 28.8438C127.118 28.1718 126.473 27.761 125.606 27.761ZM49.7894 24.1412H49.7472C49.595 24.8471 49.3583 25.7873 49.0258 27.048L47.7691 31.0589H51.8309L50.5573 27.048C50.4192 26.6414 50.1614 25.553 49.7894 24.1412ZM74.8433 28.032C74.2431 28.032 73.7063 28.2297 73.2175 28.6264C72.7314 29.0287 72.4031 29.5497 72.2524 30.1949C72.1777 30.497 72.1341 30.7426 72.1341 30.9389V32.7586C72.1341 33.5549 72.382 34.2283 72.8709 34.776C73.3569 35.3182 73.9938 35.5935 74.7686 35.5935C75.6858 35.5935 76.3987 35.2433 76.9073 34.536C77.4173 33.8302 77.6737 32.9012 77.6737 31.7436C77.6737 30.6819 77.4328 29.8038 76.9552 29.1149C76.4283 28.3977 75.7238 28.032 74.8433 28.032ZM107.218 27.8796C106.247 27.8796 105.506 28.3116 105 29.1798C104.562 29.8942 104.346 30.768 104.346 31.8C104.346 32.8066 104.562 33.6636 105 34.3807C105.519 35.2476 106.253 35.6796 107.199 35.6796C108.121 35.6796 108.851 35.2419 109.372 34.3539C109.824 33.6283 110.049 32.7572 110.049 31.7591C110.049 30.7582 109.833 29.8956 109.401 29.1812C108.886 28.3116 108.162 27.8796 107.218 27.8796ZM62.8524 28.032C62.2551 28.032 61.7155 28.2297 61.2266 28.6264C60.7391 29.0287 60.4207 29.5497 60.27 30.1949C60.1967 30.497 60.1573 30.7426 60.1573 30.9389V32.7586C60.1573 33.5549 60.3982 34.2283 60.8871 34.776C61.3731 35.3182 62.0071 35.5935 62.7834 35.5935C63.6949 35.5935 64.4106 35.2433 64.9192 34.536C65.4278 33.8302 65.68 32.9012 65.68 31.7436C65.68 30.6819 65.4433 29.8038 64.9643 29.1149C64.4388 28.3977 63.7372 28.032 62.8524 28.032Z" fill="#646D84"/>
<path d="M45.0737 10.9002C45.6711 10.7999 46.4333 10.7449 47.2406 10.7449C48.6339 10.7449 49.5962 11.0329 50.2823 11.6089C51.0008 12.1962 51.4432 13.0828 51.4432 14.3576C51.4432 15.6875 50.9896 16.6842 50.2823 17.3279C49.5412 18.0042 48.3578 18.3472 46.9095 18.3472C46.1135 18.3472 45.5161 18.3035 45.0737 18.247V10.9002ZM46.4347 17.2277C46.6221 17.2616 46.9109 17.2616 47.187 17.2616C48.9566 17.2729 50.0076 16.2973 50.0076 14.4028C50.0189 12.751 49.0679 11.8093 47.3645 11.8093C46.9334 11.8093 46.6235 11.8432 46.4361 11.887V17.2277H46.4347Z" fill="#646D84"/>
<path d="M57.6931 15.5211C57.6931 17.5046 56.2998 18.3912 54.9289 18.3912C53.4031 18.3912 52.231 17.3381 52.231 15.61C52.231 13.8369 53.3919 12.7512 55.0177 12.7512C56.6196 12.7512 57.6931 13.882 57.6931 15.5211ZM53.6342 15.5776C53.6342 16.6195 54.1428 17.4058 54.9726 17.4058C55.7461 17.4058 56.2885 16.6406 56.2885 15.555C56.2885 14.7122 55.9123 13.7493 54.9839 13.7493C54.0216 13.7493 53.6342 14.6797 53.6342 15.5776Z" fill="#646D84"/>
<path d="M59.5399 12.8738L60.1034 15.3232C60.2246 15.8992 60.3471 16.4865 60.4458 17.0738H60.4683C60.5796 16.4865 60.7557 15.8879 60.9107 15.3345L61.6067 12.8752H62.7126L63.3875 15.2681C63.5537 15.8992 63.6974 16.4865 63.8186 17.0738H63.8411C63.9299 16.4865 64.051 15.8992 64.1947 15.2681L64.7921 12.8752H66.1305L64.4385 18.2724H63.1775L62.5365 16.0785C62.3703 15.5138 62.2491 15.0041 62.1279 14.3491H62.1054C61.9955 15.014 61.8504 15.5463 61.6968 16.0785L61.0107 18.2724H59.7385L58.1465 12.8752H59.5399V12.8738Z" fill="#646D84"/>
<path d="M67.0041 14.4804C67.0041 13.8593 66.9929 13.3397 66.9604 12.8739H68.1552L68.2214 13.6828H68.2552C68.4877 13.2621 69.0737 12.7524 69.9698 12.7524C70.9095 12.7524 71.883 13.3623 71.883 15.0677V18.2696H70.5235V15.223C70.5235 14.448 70.236 13.8607 69.495 13.8607C68.9526 13.8607 68.5778 14.2489 68.4327 14.6583C68.389 14.7797 68.3778 14.9463 68.3778 15.1016V18.271H67.0069V14.4804H67.0041Z" fill="#646D84"/>
<path d="M73.3301 10.4019H74.7009V18.2696H73.3301V10.4019Z" fill="#646D84"/>
<path d="M81.2927 15.5211C81.2927 17.5046 79.8994 18.3912 78.5286 18.3912C77.0027 18.3912 75.8306 17.3381 75.8306 15.61C75.8306 13.8369 76.9915 12.7512 78.6173 12.7512C80.2192 12.7512 81.2927 13.882 81.2927 15.5211ZM77.2338 15.5776C77.2338 16.6195 77.7424 17.4058 78.5722 17.4058C79.3457 17.4058 79.8881 16.6406 79.8881 15.555C79.8881 14.7122 79.5119 13.7493 78.5835 13.7493C77.6212 13.7493 77.2338 14.6797 77.2338 15.5776Z" fill="#646D84"/>
<path d="M85.4408 18.2698L85.3521 17.6712H85.3183C84.9872 18.0919 84.4222 18.3912 83.7262 18.3912C82.6428 18.3912 82.0342 17.6049 82.0342 16.7846C82.0342 15.4223 83.2402 14.7348 85.2295 14.746V14.6571C85.2295 14.3028 85.0858 13.7155 84.1348 13.7155C83.6037 13.7155 83.0514 13.882 82.6865 14.115L82.4216 13.2284C82.8203 12.9842 83.5163 12.7512 84.3673 12.7512C86.0917 12.7512 86.5905 13.8482 86.5905 15.0228V16.9724C86.5905 17.4595 86.613 17.9366 86.6679 18.2684H85.4408V18.2698ZM85.2633 15.6326C84.301 15.61 83.3839 15.8204 83.3839 16.6406C83.3839 17.1729 83.7262 17.4157 84.1573 17.4157C84.6998 17.4157 85.0971 17.0613 85.2196 16.6731C85.2534 16.5729 85.2633 16.4628 85.2633 16.3738V15.6326Z" fill="#646D84"/>
<path d="M92.9937 10.4019V16.752C92.9937 17.3054 93.0163 17.904 93.0374 18.2696H91.8216L91.7666 17.4169H91.7441C91.4229 18.0155 90.7706 18.3924 89.9858 18.3924C88.7038 18.3924 87.6851 17.2955 87.6851 15.6338C87.6739 13.8282 88.8024 12.7524 90.0957 12.7524C90.8368 12.7524 91.3679 13.063 91.6102 13.4611H91.6328V10.4019H92.9937ZM91.6328 15.1228C91.6328 15.0127 91.6215 14.8786 91.599 14.7684C91.4778 14.2362 91.0467 13.8042 90.4268 13.8042C89.5533 13.8042 89.0672 14.5793 89.0672 15.5887C89.0672 16.5755 89.5533 17.2955 90.4169 17.2955C90.9692 17.2955 91.4567 16.9186 91.5891 16.3313C91.6229 16.2098 91.6328 16.0757 91.6328 15.9317V15.1228Z" fill="#646D84"/>
<path d="M101.863 15.5211C101.863 17.5046 100.469 18.3912 99.0984 18.3912C97.5726 18.3912 96.4004 17.3381 96.4004 15.61C96.4004 13.8369 97.5613 12.7512 99.1871 12.7512C100.79 12.7512 101.863 13.882 101.863 15.5211ZM97.805 15.5776C97.805 16.6195 98.3136 17.4058 99.1435 17.4058C99.9169 17.4058 100.459 16.6406 100.459 15.555C100.459 14.7122 100.083 13.7493 99.1547 13.7493C98.1911 13.7493 97.805 14.6797 97.805 15.5776Z" fill="#646D84"/>
<path d="M102.98 14.4804C102.98 13.8593 102.968 13.3397 102.936 12.8739H104.131L104.197 13.6828H104.231C104.463 13.2621 105.049 12.7524 105.945 12.7524C106.885 12.7524 107.859 13.3623 107.859 15.0677V18.2696H106.499V15.223C106.499 14.448 106.212 13.8607 105.471 13.8607C104.928 13.8607 104.553 14.2489 104.408 14.6583C104.365 14.7797 104.353 14.9463 104.353 15.1016V18.271H102.983V14.4804H102.98Z" fill="#646D84"/>
<path d="M113.154 11.332V12.8723H114.448V13.8916H113.154V16.2746C113.154 16.9283 113.332 17.2713 113.852 17.2713C114.084 17.2713 114.26 17.2375 114.383 17.205L114.405 18.2469C114.207 18.3245 113.853 18.3796 113.421 18.3796C112.923 18.3796 112.503 18.213 112.248 17.9363C111.961 17.6257 111.829 17.1386 111.829 16.4299V13.893H111.055V12.8737H111.829V11.6553L113.154 11.332Z" fill="#646D84"/>
<path d="M115.476 10.4019H116.847V13.615H116.869C117.036 13.3595 117.257 13.1491 117.544 12.9939C117.809 12.8386 118.13 12.7496 118.473 12.7496C119.39 12.7496 120.352 13.3595 120.352 15.0875V18.2682H118.993V15.2428C118.993 14.4564 118.705 13.8691 117.953 13.8691C117.422 13.8691 117.046 14.2235 116.902 14.6343C116.858 14.7459 116.847 14.8899 116.847 15.0437V18.2682H115.476V10.4019Z" fill="#646D84"/>
<path d="M122.764 15.9545C122.798 16.93 123.56 17.3507 124.422 17.3507C125.052 17.3507 125.506 17.2618 125.916 17.1065L126.114 18.0482C125.649 18.2359 125.008 18.3799 124.235 18.3799C122.488 18.3799 121.459 17.3056 121.459 15.6538C121.459 14.1573 122.367 12.7512 124.091 12.7512C125.838 12.7512 126.413 14.1912 126.413 15.3771C126.413 15.6326 126.391 15.8317 126.369 15.9531H122.764V15.9545ZM125.131 15.0016C125.142 14.5032 124.921 13.683 124.014 13.683C123.173 13.683 122.819 14.4482 122.764 15.0016H125.131Z" fill="#646D84"/>
</svg>
