<svg width="143" height="48" viewBox="0 0 143 48" fill="none" xmlns="http://www.w3.org/2000/svg">
<path d="M134.179 1.97647C136.75 1.97647 138.496 2.46776 139.514 3.47576C140.533 4.48518 141.028 6.21882 141.028 8.77553V39.2711C141.028 41.8207 140.534 43.5445 139.52 44.5412C138.506 45.5379 136.759 46.0235 134.179 46.0235H8.72511C6.16238 46.0235 4.43511 45.5435 3.44468 44.5539C2.45425 43.5656 1.97241 41.8405 1.97241 39.2795V8.77553C1.97241 5.84329 2.29223 4.22965 3.04033 3.37553C3.87861 2.42118 5.6876 1.97647 8.73357 1.97647H134.179ZM134.179 0H8.73357C1.24685 0 0 2.59765 0 8.77553V39.2795C0 45.4532 2.56414 48 8.72511 48H134.18C140.346 48 143 45.4489 143 39.2711V8.77553C143 2.59765 140.344 0 134.179 0Z" fill="#646D84"/>
<path d="M70.2574 27.5307C67.6158 27.5307 65.5251 29.5156 65.5251 32.2728C65.5251 34.9199 67.6158 37.0149 70.2574 37.0149C72.8991 37.0149 74.9898 35.03 74.9898 32.2728C74.9884 29.4055 72.8977 27.5307 70.2574 27.5307ZM70.2574 35.0286C68.8274 35.0286 67.6158 33.8159 67.6158 32.1613C67.6158 30.5067 68.826 29.294 70.2574 29.294C71.6874 29.294 72.8991 30.3966 72.8991 32.1613C72.8977 33.8159 71.6874 35.0286 70.2574 35.0286ZM60.022 27.5307C57.3804 27.5307 55.2896 29.5156 55.2896 32.2728C55.2896 34.9199 57.3804 37.0149 60.022 37.0149C62.6637 37.0149 64.7544 35.03 64.7544 32.2728C64.7544 29.4055 62.6637 27.5307 60.022 27.5307ZM60.022 35.0286C58.592 35.0286 57.3804 33.8159 57.3804 32.1613C57.3804 30.5067 58.5906 29.294 60.022 29.294C61.4534 29.294 62.6637 30.3966 62.6637 32.1613C62.6637 33.8159 61.4534 35.0286 60.022 35.0286ZM47.8071 28.9636V30.9486H52.5395C52.4296 32.0512 51.9887 32.9335 51.4392 33.4841C50.7784 34.1462 49.6781 34.917 47.8071 34.917C44.8358 34.917 42.6352 32.6017 42.6352 29.6243C42.6352 26.6469 44.9457 24.3316 47.8071 24.3316C49.3484 24.3316 50.5587 24.9937 51.4392 25.7646L52.8692 24.3316C51.659 23.229 50.1177 22.3467 47.917 22.3467C43.9553 22.3467 40.5444 25.6544 40.5444 29.6243C40.5444 33.5942 43.9567 36.9034 47.9184 36.9034C50.1191 36.9034 51.6604 36.2413 52.9805 34.8083C54.3006 33.4855 54.7416 31.6107 54.7416 30.1763C54.7416 29.7359 54.7416 29.294 54.6317 28.9636H47.8071ZM97.7684 30.5081C97.3288 29.4055 96.2271 27.5307 93.8067 27.5307C91.3862 27.5307 89.4054 29.4055 89.4054 32.2728C89.4054 34.9199 91.3862 37.0149 94.0279 37.0149C96.1186 37.0149 97.4387 35.6921 97.8797 34.9199L96.3384 33.8173C95.7875 34.5895 95.1282 35.1401 94.0279 35.1401C92.9275 35.1401 92.2668 34.6996 91.7173 33.7072L97.9882 31.0587L97.7684 30.5081ZM91.3848 32.0512C91.3848 30.2865 92.8148 29.294 93.8053 29.294C94.5759 29.294 95.3466 29.7345 95.5663 30.2865L91.3848 32.0512ZM86.2129 36.573H88.3036V22.7886H86.2129V36.573ZM82.9119 28.5232C82.361 27.9712 81.4819 27.4206 80.3816 27.4206C78.071 27.4206 75.8704 29.5156 75.8704 32.1627C75.8704 34.8098 77.9611 36.7947 80.3816 36.7947C81.4819 36.7947 82.3624 36.2427 82.802 35.6921H82.9119V36.3542C82.9119 38.1189 81.9215 39.1114 80.3816 39.1114C79.1713 39.1114 78.2908 38.229 78.071 37.4568L76.3099 38.229C76.8608 39.4418 78.1809 40.9862 80.4915 40.9862C82.9119 40.9862 84.8928 39.5533 84.8928 36.134V27.7537H82.9119V28.5232ZM80.4915 35.0286C79.0615 35.0286 77.8498 33.8159 77.8498 32.1613C77.8498 30.5067 79.0601 29.294 80.4915 29.294C81.9229 29.294 83.0218 30.5067 83.0218 32.1613C83.0218 33.8159 81.9215 35.0286 80.4915 35.0286ZM107.342 22.7886H102.389V36.573H104.48V31.3905H107.342C109.652 31.3905 111.853 29.7359 111.853 27.0902C111.853 24.4446 109.652 22.7886 107.342 22.7886ZM107.452 29.4055H104.48V24.6634H107.452C108.993 24.6634 109.872 25.9862 109.872 26.9787C109.762 28.1928 108.883 29.4055 107.452 29.4055ZM120.107 27.4206C118.566 27.4206 117.026 28.0827 116.475 29.5156L118.346 30.2879C118.786 29.5156 119.447 29.2954 120.217 29.2954C121.318 29.2954 122.308 29.9575 122.418 31.0601V31.1702C122.088 30.95 121.208 30.6182 120.327 30.6182C118.346 30.6182 116.365 31.7208 116.365 33.7057C116.365 35.5806 118.017 36.7933 119.776 36.7933C121.206 36.7933 121.867 36.1312 122.418 35.4705H122.528V36.573H124.509V31.2803C124.289 28.8535 122.418 27.4206 120.107 27.4206ZM119.886 35.0286C119.225 35.0286 118.235 34.6982 118.235 33.8159C118.235 32.7133 119.445 32.3829 120.436 32.3829C121.316 32.3829 121.756 32.6032 122.307 32.8234C122.088 34.1462 120.987 35.0286 119.886 35.0286ZM131.442 27.7509L129.131 33.7057H129.021L126.601 27.7509H124.4L128.032 36.1312L125.942 40.7632H128.032L133.645 27.7509H131.442ZM112.955 36.573H115.045V22.7886H112.955V36.573Z" fill="#646D84"/>
<path d="M44.3823 14.602H47.8115C47.8312 14.6796 47.8467 14.7756 47.8608 14.8857C47.8735 14.9973 47.8805 15.1074 47.8805 15.2189C47.8805 15.6693 47.8115 16.0928 47.6748 16.4909C47.5382 16.889 47.3226 17.2448 47.0295 17.5582C46.7168 17.8914 46.342 18.1483 45.9067 18.3318C45.4699 18.514 44.9726 18.6057 44.4119 18.6057C43.9033 18.6057 43.4257 18.514 42.9762 18.3318C42.5268 18.1497 42.1366 17.8942 41.8041 17.5681C41.4716 17.242 41.2081 16.8551 41.0123 16.4076C40.8165 15.9601 40.7192 15.473 40.7192 14.9436C40.7192 14.4142 40.8165 13.9271 41.0123 13.4796C41.2081 13.0321 41.4716 12.6467 41.8041 12.3191C42.1366 11.993 42.5268 11.7389 42.9762 11.5554C43.4257 11.3733 43.9047 11.2815 44.4119 11.2815C44.9782 11.2815 45.484 11.3789 45.9306 11.5751C46.3772 11.7714 46.759 12.0424 47.0789 12.3869L46.1701 13.2777C45.9419 13.0363 45.6883 12.8514 45.4079 12.7243C45.1276 12.5973 44.7923 12.5337 44.402 12.5337C44.0822 12.5337 43.7807 12.5916 43.4933 12.7046C43.2073 12.8189 42.9565 12.9798 42.741 13.1888C42.5254 13.3977 42.3549 13.6504 42.2281 13.9469C42.1013 14.2434 42.0379 14.5751 42.0379 14.9408C42.0379 15.3064 42.1013 15.6368 42.2281 15.9347C42.3549 16.2311 42.5282 16.4838 42.7452 16.6928C42.9636 16.9017 43.2157 17.0627 43.5017 17.177C43.7877 17.2914 44.0949 17.3478 44.4203 17.3478C44.7909 17.3478 45.105 17.2942 45.3629 17.1869C45.6207 17.0796 45.8405 16.9413 46.0222 16.7704C46.1518 16.6533 46.2645 16.505 46.3589 16.3257C46.4533 16.1464 46.5266 15.946 46.5787 15.7243H44.3809V14.602H44.3823Z" fill="#646D84"/>
<path d="M50.2923 12.6933V14.3183H53.096V15.5719H50.2923V17.1969H53.4087V18.4491H48.9736V11.4397H53.4087V12.6919H50.2923V12.6933Z" fill="#646D84"/>
<path d="M56.104 18.4492V12.6934H54.1499V11.4412H59.3754V12.6934H57.4213V18.4492H56.104Z" fill="#646D84"/>
<path d="M62.4639 11.4397H63.7826V18.4477H62.4639V11.4397Z" fill="#646D84"/>
<path d="M66.6733 18.4492V12.6934H64.7192V11.4412H69.9447V12.6934H67.992V18.4492H66.6733Z" fill="#646D84"/>
<path d="M76.1478 18.6056C75.6265 18.6056 75.1432 18.511 74.6966 18.3218C74.25 18.1326 73.864 17.8729 73.5385 17.5439C73.2131 17.215 72.9581 16.8268 72.7721 16.3792C72.5862 15.9317 72.4932 15.4545 72.4932 14.9449C72.4932 14.4352 72.5862 13.9581 72.7721 13.5105C72.9581 13.063 73.2131 12.6748 73.5385 12.3458C73.864 12.0169 74.25 11.7571 74.6966 11.5679C75.1432 11.3788 75.6265 11.2842 76.1478 11.2842C76.6691 11.2842 77.1523 11.3788 77.5989 11.5679C78.0455 11.7571 78.4301 12.0169 78.757 12.3458C79.0824 12.6748 79.3389 13.0644 79.5234 13.5105C79.7094 13.9581 79.8024 14.4352 79.8024 14.9449C79.8024 15.4545 79.7094 15.9317 79.5234 16.3792C79.3375 16.8268 79.0824 17.215 78.757 17.5439C78.4315 17.8729 78.0455 18.1326 77.5989 18.3218C77.1523 18.5096 76.6691 18.6056 76.1478 18.6056ZM76.1478 17.3519C76.4732 17.3519 76.7775 17.2926 77.0607 17.1755C77.3439 17.0583 77.5919 16.8945 77.8032 16.6856C78.0145 16.4766 78.1808 16.2239 78.3019 15.9275C78.4217 15.631 78.4823 15.3021 78.4823 14.9435C78.4823 14.5849 78.4217 14.2574 78.3019 13.9595C78.1808 13.663 78.0159 13.4103 77.8032 13.2014C77.5919 12.9924 77.3439 12.8301 77.0607 12.7115C76.7775 12.5929 76.4732 12.535 76.1478 12.535C75.8223 12.535 75.518 12.5943 75.2348 12.7115C74.9516 12.8286 74.7037 12.9924 74.4923 13.2014C74.281 13.4103 74.1148 13.663 73.9936 13.9595C73.8724 14.2559 73.8133 14.5849 73.8133 14.9435C73.8133 15.3021 73.8739 15.631 73.9936 15.9275C74.1134 16.2239 74.2796 16.4766 74.4923 16.6856C74.7037 16.8945 74.9516 17.0569 75.2348 17.1755C75.518 17.2941 75.8223 17.3519 76.1478 17.3519Z" fill="#646D84"/>
<path d="M80.8662 11.4397H82.4005L85.214 16.1381H85.2915L85.214 14.787V11.4397H86.5228V18.4477H85.1351L82.1652 13.4853H82.0877L82.1652 14.8364V18.4477H80.8662V11.4397Z" fill="#646D84"/>
<path fill-rule="evenodd" clip-rule="evenodd" d="M30.5357 19.7733L13.418 9.90503L26.9389 23.3831L30.5357 19.7733Z" fill="#646D84"/>
<path fill-rule="evenodd" clip-rule="evenodd" d="M11.83 10.0054C11.7638 10.1254 11.6934 10.2623 11.6934 10.4134V38.3395C11.6934 38.427 11.7384 38.5103 11.7624 38.5879L26.0807 24.212L11.83 10.0054Z" fill="#646D84"/>
<path fill-rule="evenodd" clip-rule="evenodd" d="M26.9418 25.0393L12.9038 39.1316C12.9447 39.116 12.9855 39.0977 13.025 39.0737L30.7626 28.8468L26.9418 25.0393Z" fill="#646D84"/>
<path fill-rule="evenodd" clip-rule="evenodd" d="M37.2431 23.6415L31.5837 20.3789L27.7671 24.2104L31.812 28.2425L37.2431 25.1112C37.8095 24.785 37.8095 23.9676 37.2431 23.6415Z" fill="#646D84"/>
</svg>
