<svg width="114" height="48" viewBox="0 0 114 48" fill="none" xmlns="http://www.w3.org/2000/svg">
<g clip-path="url(#clip0)">
<path d="M112.955 39.1871C112.955 39.0208 113.01 38.9099 113.12 38.7991C113.23 38.6882 113.34 38.6328 113.505 38.6328C113.615 38.6328 113.78 38.6882 113.89 38.7991C114 38.9099 114.055 39.0208 114.055 39.1871V39.5751C114.055 39.7413 114 39.8522 113.89 39.963C113.78 40.0739 113.67 40.1293 113.505 40.1293C113.34 40.1293 113.23 40.0739 113.12 39.963C113.01 39.8522 112.955 39.7413 112.955 39.5751V39.1871ZM112.955 41.6259C112.955 41.4596 113.01 41.3487 113.12 41.2379C113.23 41.127 113.34 41.0716 113.505 41.0716C113.615 41.0716 113.78 41.127 113.89 41.2379C114 41.3487 114.055 41.4596 114.055 41.6259V47.4457C114.055 47.612 114 47.7229 113.89 47.8337C113.78 47.9446 113.67 48 113.505 48C113.34 48 113.23 47.9446 113.12 47.8337C113.01 47.7229 112.955 47.612 112.955 47.4457V41.6259ZM107.126 41.6259C107.126 41.4596 107.181 41.3487 107.291 41.2379C107.401 41.127 107.511 41.0716 107.676 41.0716C107.841 41.0716 107.951 41.127 108.061 41.2379C108.171 41.3487 108.226 41.4596 108.226 41.6259V45.5058C108.226 45.6721 108.281 45.8938 108.336 46.06C108.391 46.2263 108.501 46.3926 108.666 46.5035C108.776 46.6143 108.941 46.7252 109.106 46.836C109.271 46.8915 109.491 46.9469 109.656 46.9469C109.821 46.9469 110.04 46.8915 110.205 46.836C110.37 46.7806 110.535 46.6697 110.645 46.5035C110.755 46.3926 110.865 46.2263 110.975 46.06C111.03 45.8938 111.085 45.7275 111.085 45.5058V41.6259C111.085 41.4596 111.14 41.3487 111.25 41.2379C111.36 41.127 111.47 41.0716 111.635 41.0716C111.745 41.0716 111.91 41.127 112.02 41.2379C112.13 41.3487 112.185 41.4596 112.185 41.6259V45.5058C112.185 45.8383 112.13 46.1709 111.965 46.448C111.855 46.7252 111.635 47.0023 111.415 47.224C111.195 47.4457 110.92 47.612 110.645 47.7783C110.37 47.8891 110.04 47.9446 109.711 47.9446C109.381 47.9446 109.051 47.8891 108.721 47.7783C108.446 47.6674 108.171 47.4457 107.951 47.224C107.731 47.0023 107.566 46.7252 107.401 46.448C107.291 46.1709 107.236 45.8383 107.236 45.5058V41.6259H107.126ZM100.472 41.8476C100.472 41.7921 100.417 41.7367 100.417 41.6259C100.417 41.515 100.472 41.3487 100.527 41.2379C100.637 41.127 100.747 41.0716 100.912 41.0716C101.022 41.0716 101.077 41.0716 101.187 41.127C101.297 41.1824 101.352 41.2379 101.407 41.3487L103.441 46.1155L105.476 41.3487C105.586 41.127 105.696 41.0162 105.971 41.0162C106.136 41.0162 106.246 41.0716 106.356 41.1824C106.466 41.2933 106.466 41.4042 106.466 41.5704C106.466 41.6259 106.466 41.7367 106.411 41.7921L103.936 47.6674C103.826 47.8891 103.661 48 103.441 48C103.221 48 103.056 47.8891 102.946 47.6674L100.472 41.8476ZM93.4877 38.9099C93.5427 38.8545 93.6526 38.8545 93.7076 38.8545C93.8176 38.8545 93.9276 38.9099 93.9826 38.9654L94.8625 39.6305C95.0275 39.7413 95.0825 39.9076 95.0825 40.0739C95.0825 40.2402 95.0275 40.351 94.9175 40.4619C94.8075 40.5727 94.6975 40.6282 94.5325 40.6282C94.4225 40.6282 94.3125 40.5727 94.2576 40.5173L93.6526 40.0739L93.0477 40.5173C92.9377 40.5727 92.8827 40.6282 92.7728 40.6282C92.6078 40.6282 92.4978 40.5727 92.3878 40.4619C92.2778 40.351 92.2228 40.2402 92.2228 40.0739C92.2228 39.9076 92.2778 39.7413 92.4428 39.6305L93.4877 38.9099ZM93.7626 37.8014C93.7076 37.746 93.7076 37.6351 93.7076 37.5242C93.7076 37.358 93.7626 37.2471 93.8726 37.1363C93.9826 37.0254 94.0926 36.97 94.2576 36.97C94.4225 36.97 94.5875 37.0254 94.6975 37.1917L95.2474 38.1894C95.3024 38.3002 95.3024 38.3557 95.3024 38.4665C95.3024 38.6328 95.2474 38.7436 95.1374 38.8545C95.0275 38.9654 94.9175 39.0208 94.7525 39.0208C94.5325 39.0208 94.4225 38.9654 94.3126 38.7991L93.7626 37.8014ZM92.3328 44.0092H95.1924V43.5658C95.1924 43.3995 95.1374 43.1778 95.0825 43.0115C95.0275 42.8453 94.9175 42.679 94.7525 42.5681C94.6425 42.4573 94.4775 42.3464 94.3126 42.2356C94.1476 42.1801 93.9276 42.1247 93.7626 42.1247C93.5427 42.1247 93.3777 42.1801 93.2127 42.2356C93.0477 42.291 92.8827 42.4018 92.7728 42.5681C92.6628 42.679 92.5528 42.8453 92.4428 43.0115C92.3878 43.1778 92.3328 43.3441 92.3328 43.5658V44.0092ZM91.288 43.5658C91.288 43.2333 91.3429 42.9007 91.4529 42.6236C91.5629 42.3464 91.7829 42.0693 92.0029 41.8476C92.2228 41.6259 92.4978 41.4596 92.7728 41.2933C93.0477 41.1824 93.3777 41.127 93.7626 41.127C94.0926 41.127 94.4225 41.1824 94.6975 41.2933C95.0275 41.4042 95.2474 41.6259 95.4674 41.8476C95.6874 42.0693 95.8524 42.3464 96.0173 42.6236C96.1273 42.9007 96.2373 43.2333 96.2373 43.5658V44.5635C96.2373 44.7298 96.1823 44.8406 96.0723 44.9515C95.9623 45.0624 95.8524 45.1178 95.6874 45.1178H92.2778V45.6166C92.2778 45.7829 92.3328 46.0046 92.3878 46.1709C92.4428 46.3372 92.5528 46.5035 92.7178 46.6143C92.8278 46.7252 92.9927 46.836 93.1577 46.9469C93.3227 47.0023 93.5427 47.0577 93.7076 47.0577C93.9826 47.0577 94.2576 47.0023 94.4775 46.836C94.6975 46.6697 94.8625 46.5035 95.0275 46.2263V46.1709C95.0825 46.06 95.1374 46.0046 95.1924 45.9492C95.3024 45.8938 95.3574 45.8383 95.4674 45.8383C95.6324 45.8383 95.7424 45.8938 95.8524 46.0046C95.9623 46.1155 96.0173 46.2263 96.0173 46.3926C96.0173 46.448 96.0173 46.5035 95.9623 46.6143V46.6697C95.7974 47.1132 95.4674 47.4457 95.0825 47.7229C94.6975 48 94.2026 48.1109 93.7076 48.1109C93.3777 48.1109 93.0477 48.0554 92.7728 47.9446C92.4978 47.8337 92.2228 47.612 92.0029 47.3903C91.7829 47.1686 91.6179 46.8915 91.4529 46.6143C91.3429 46.3372 91.233 46.0046 91.233 45.6721V43.5658H91.288ZM84.7438 41.8476C84.7438 41.7921 84.6888 41.7367 84.6888 41.6259C84.6888 41.515 84.7438 41.3487 84.7988 41.2379C84.9088 41.127 85.0188 41.0716 85.1838 41.0716C85.2937 41.0716 85.3487 41.0716 85.4587 41.127C85.5687 41.1824 85.6237 41.2379 85.6787 41.3487L87.7134 46.1155L89.7482 41.3487C89.8581 41.127 89.9681 41.0162 90.2431 41.0162C90.4081 41.0162 90.5181 41.0716 90.628 41.1824C90.738 41.2933 90.738 41.4042 90.738 41.5704C90.738 41.6259 90.738 41.7367 90.683 41.7921L88.2084 47.6674C88.0984 47.8891 87.9334 48 87.7134 48C87.4935 48 87.3285 47.8891 87.2185 47.6674L84.7438 41.8476ZM75.45 43.5658C75.45 43.2333 75.505 42.9007 75.615 42.6236C75.725 42.3464 75.945 42.0693 76.1649 41.8476C76.3849 41.6259 76.6599 41.4596 76.9348 41.2933C77.2098 41.1824 77.5398 41.127 77.9247 41.127C78.2547 41.127 78.5846 41.1824 78.8596 41.2933C79.1895 41.4042 79.4095 41.6259 79.6295 41.8476C79.8495 42.0693 80.0144 42.3464 80.1794 42.6236C80.2894 42.9007 80.3994 43.2333 80.3994 43.5658V47.4457C80.3994 47.612 80.3444 47.7229 80.2344 47.8337C80.1244 47.9446 80.0144 48 79.8495 48C79.6845 48 79.5745 47.9446 79.4645 47.8337C79.3545 47.7229 79.2995 47.612 79.2995 47.4457V43.5658C79.2995 43.3995 79.2445 43.1778 79.1895 43.0115C79.1346 42.8453 79.0246 42.679 78.8596 42.5681C78.7496 42.4573 78.5846 42.3464 78.4196 42.2356C78.2547 42.1801 78.0347 42.1247 77.8697 42.1247C77.6498 42.1247 77.4848 42.1801 77.3198 42.2356C77.1548 42.291 76.9898 42.4018 76.8799 42.5681C76.7699 42.679 76.6599 42.8453 76.5499 43.0115C76.4949 43.1778 76.4399 43.3441 76.4399 43.5658V47.4457C76.4399 47.612 76.3849 47.7229 76.2749 47.8337C76.1649 47.9446 76.055 48 75.89 48C75.725 48 75.615 47.9446 75.505 47.8337C75.395 47.7229 75.3401 47.612 75.3401 47.4457V43.5658H75.45ZM70.6657 45.5058C70.6657 45.6721 70.7207 45.8938 70.7757 46.06C70.8306 46.2263 70.9406 46.3926 71.1056 46.5035C71.2156 46.6143 71.3806 46.7252 71.5456 46.836C71.7105 46.8915 71.9305 46.9469 72.0955 46.9469C72.2605 46.9469 72.4804 46.8915 72.6454 46.836C72.8104 46.7806 72.9754 46.6697 73.0853 46.5589C73.1953 46.448 73.3053 46.2818 73.4153 46.1155C73.4703 45.9492 73.5253 45.7829 73.5253 45.5612V43.5104C73.5253 43.3441 73.4703 43.1224 73.4153 42.9561C73.3603 42.7898 73.2503 42.6236 73.0853 42.5127C72.9754 42.4018 72.8104 42.291 72.6454 42.1801C72.4804 42.1247 72.2605 42.0693 72.0955 42.0693C71.8755 42.0693 71.7105 42.1247 71.5456 42.1801C71.3806 42.2356 71.2156 42.3464 71.1056 42.5127C70.9956 42.6236 70.8856 42.7898 70.7757 42.9561C70.7207 43.1224 70.6657 43.2887 70.6657 43.5104V45.5058ZM69.6208 43.5658C69.6208 43.2333 69.6758 42.9007 69.7858 42.6236C69.8958 42.3464 70.1157 42.0693 70.3357 41.8476C70.5557 41.6259 70.8306 41.4596 71.1056 41.2933C71.3806 41.1824 71.7105 41.127 72.0955 41.127C72.4254 41.127 72.7554 41.1824 73.0304 41.2933C73.3603 41.4042 73.5803 41.6259 73.8003 41.8476C74.0202 42.0693 74.1852 42.3464 74.3502 42.6236C74.4602 42.9007 74.5702 43.2333 74.5702 43.5658V47.4457C74.5702 47.612 74.5152 47.7229 74.4052 47.8337C74.2952 47.9446 74.1852 48 74.0202 48C73.9102 48 73.8003 47.9446 73.6903 47.8891C73.5803 47.8337 73.5253 47.7229 73.5253 47.612C73.0853 47.9446 72.6454 48.0554 72.0955 48.0554C71.7655 48.0554 71.4356 48 71.1606 47.8891C70.8856 47.7783 70.6107 47.5566 70.3907 47.3349C70.1707 47.1132 70.0058 46.836 69.8408 46.5589C69.7308 46.2818 69.6208 45.9492 69.6208 45.6166V43.5658ZM64.0665 39.1871C64.0665 39.0208 64.1215 38.9099 64.2315 38.7991C64.3415 38.6882 64.4515 38.6328 64.6165 38.6328C64.7264 38.6328 64.8914 38.6882 65.0014 38.7991C65.1114 38.9099 65.1664 39.0208 65.1664 39.1871V39.5751C65.1664 39.7413 65.1114 39.8522 65.0014 39.963C64.8914 40.0739 64.7814 40.1293 64.6165 40.1293C64.4515 40.1293 64.3415 40.0739 64.2315 39.963C64.1215 39.8522 64.0665 39.7413 64.0665 39.5751V39.1871ZM64.0665 41.6259C64.0665 41.4596 64.1215 41.3487 64.2315 41.2379C64.3415 41.127 64.4515 41.0716 64.6165 41.0716C64.7264 41.0716 64.8914 41.127 65.0014 41.2379C65.1114 41.3487 65.1664 41.4596 65.1664 41.6259V47.4457C65.1664 47.612 65.1114 47.7229 65.0014 47.8337C64.8914 47.9446 64.7814 48 64.6165 48C64.4515 48 64.3415 47.9446 64.2315 47.8337C64.1215 47.7229 64.0665 47.612 64.0665 47.4457V41.6259ZM62.0868 40.5727H59.3922C59.2272 40.5727 59.1172 40.5173 59.0072 40.4065C58.8972 40.2956 58.8422 40.1848 58.8422 40.0185C58.8422 39.8522 58.8972 39.7413 59.0072 39.6305C59.1172 39.5196 59.2272 39.4642 59.3922 39.4642H62.0868V39.1316C62.0868 38.9654 62.1418 38.8545 62.2518 38.7436C62.3618 38.6328 62.4717 38.5774 62.6367 38.5774C62.7467 38.5774 62.9117 38.6328 63.0217 38.7436C63.1317 38.8545 63.1867 38.9654 63.1867 39.1316V45.4503C63.1867 45.7829 63.1317 46.1155 62.9667 46.3926C62.8567 46.6697 62.6367 46.9469 62.4168 47.1686C62.1968 47.3903 61.9218 47.5566 61.6469 47.7229C61.3719 47.8337 61.0419 47.8891 60.712 47.8891C60.382 47.8891 60.0521 47.8337 59.7221 47.7229C59.4471 47.612 59.1722 47.3903 58.9522 47.1686C58.7322 46.9469 58.5673 46.6697 58.4023 46.3926C58.2923 46.1155 58.2373 45.7829 58.2373 45.4503V43.455C58.2373 43.1224 58.2923 42.7898 58.4573 42.5127C58.5673 42.2356 58.7872 41.9584 59.0072 41.7367C59.2272 41.515 59.5021 41.3487 59.7771 41.1824C60.0521 41.0716 60.382 41.0162 60.712 41.0162C60.9869 41.0162 61.2619 41.0716 61.4819 41.127C61.7018 41.1824 61.9218 41.3487 62.1418 41.4596V40.5727H62.0868ZM59.2272 45.5058C59.2272 45.6721 59.2822 45.8938 59.3372 46.06C59.3922 46.2263 59.5021 46.3926 59.6671 46.5035C59.7771 46.6143 59.9421 46.7252 60.1071 46.836C60.272 46.8915 60.492 46.9469 60.657 46.9469C60.822 46.9469 61.0419 46.8915 61.2069 46.836C61.3719 46.7806 61.5369 46.6697 61.6469 46.5035C61.7568 46.3926 61.8668 46.2263 61.9768 46.06C62.0318 45.8938 62.0868 45.7275 62.0868 45.5058V43.5104C62.0868 43.3441 62.0318 43.1224 61.9768 42.9561C61.9218 42.7898 61.8118 42.6236 61.6469 42.5127C61.5369 42.4018 61.3719 42.291 61.2069 42.1801C61.0419 42.1247 60.822 42.0693 60.657 42.0693C60.492 42.0693 60.272 42.1247 60.1071 42.1801C59.9421 42.2356 59.7771 42.3464 59.6671 42.5127C59.5571 42.6236 59.4471 42.7898 59.3372 42.9561C59.2822 43.1224 59.2272 43.2887 59.2272 43.5104V45.5058Z" fill="#084388"/>
<path d="M37.0654 18.9007C37.0654 17.5704 37.2853 16.351 37.7803 15.187C38.2752 14.0231 38.9351 12.97 39.815 12.1386C40.6949 11.2517 41.7398 10.5866 42.8396 10.0877C43.9945 9.5889 45.2043 9.36719 46.5791 9.36719C47.8989 9.36719 49.1088 9.5889 50.2636 10.0877C51.4185 10.5866 52.4633 11.2517 53.2882 12.1386C54.1681 13.0254 54.828 14.0231 55.323 15.187C55.8179 16.351 56.0929 17.6258 56.0929 18.9007V33.866C56.0929 34.4203 55.8729 34.9192 55.4879 35.3071C55.103 35.6951 54.6081 35.9168 54.1131 35.9168C53.5632 35.9168 53.0683 35.6951 52.6833 35.3071C52.2984 34.9192 52.0784 34.4203 52.0784 33.866V18.9007C52.0784 18.1801 51.9134 17.4596 51.6385 16.7944C51.3635 16.1293 50.9235 15.5196 50.4286 15.0208C49.9337 14.5219 49.3288 14.0785 48.6688 13.8014C47.9539 13.5242 47.239 13.358 46.5241 13.358C45.7542 13.358 45.0393 13.5242 44.3794 13.8014C43.7195 14.0785 43.1146 14.4665 42.6196 15.0208C42.1247 15.5196 41.7398 16.1293 41.4098 16.7944C41.1348 17.4596 40.9699 18.1801 40.9699 18.9007V33.866C40.9699 34.4203 40.7499 34.9192 40.3649 35.3071C39.98 35.6951 39.4851 35.9168 38.9351 35.9168C38.3852 35.9168 37.8903 35.6951 37.5053 35.3071C37.1204 34.9192 36.9004 34.4203 36.9004 33.866V18.9007H37.0654Z" fill="#084388"/>
<path fill-rule="evenodd" clip-rule="evenodd" d="M27.1114 27.9908C28.2663 27.9908 29.1462 28.9331 29.1462 30.0416C29.1462 31.2056 28.2113 32.0925 27.1114 32.0925C25.9566 32.0925 25.0767 31.1502 25.0767 30.0416C25.0217 28.9331 25.9566 27.9908 27.1114 27.9908ZM5.44428 27.9908C6.59913 27.9908 7.47902 28.9331 7.47902 30.0416C7.47902 31.2056 6.54414 32.0925 5.44428 32.0925C4.28944 32.0925 3.40955 31.1502 3.40955 30.0416C3.40955 28.9331 4.28944 27.9908 5.44428 27.9908ZM7.03907 11.0855H25.4616C27.8813 11.0855 29.8061 13.1918 29.8061 15.7414V24.3881C29.8061 24.5543 29.6961 24.7206 29.5311 24.7206H2.96961C2.80463 24.7206 2.69465 24.5543 2.69465 24.3881V15.7414C2.69465 13.1918 4.61939 11.0855 7.03907 11.0855ZM7.31404 5.21024H25.2417C25.7916 5.21024 26.1766 5.65365 26.1766 6.20793V7.87074H6.32417V6.20793C6.32417 5.70908 6.76411 5.21024 7.31404 5.21024ZM9.51375 1.2749H23.042C28.2663 1.2749 32.5557 6.65135 32.5557 13.1918V35.4181C32.5557 35.7507 32.3907 36.0278 32.1708 36.1386H0.384949C0.164978 36.0278 0 35.7507 0 35.4181V13.1918C0 6.65135 4.28944 1.2749 9.51375 1.2749Z" fill="#084388"/>
<path fill-rule="evenodd" clip-rule="evenodd" d="M3.9596 40.5728H5.71937C6.48926 40.5728 7.14918 39.7968 7.14918 38.7991V36.582H2.52979V38.7991C2.52979 39.7968 3.1897 40.5728 3.9596 40.5728Z" fill="#084388"/>
<path fill-rule="evenodd" clip-rule="evenodd" d="M27.2765 40.5728H29.0363C29.8062 40.5728 30.4661 39.7968 30.4661 38.7991V36.582H25.8467V38.7991C25.8467 39.7968 26.4516 40.5728 27.2765 40.5728Z" fill="#084388"/>
<path fill-rule="evenodd" clip-rule="evenodd" d="M7.7538 41.4597C8.57869 41.1272 9.51357 43.178 11.4933 44.6191C13.473 46.1156 16.4427 46.947 20.1822 45.2288C21.612 44.5636 23.8667 41.8477 23.8667 41.8477C23.8667 41.8477 25.0765 40.9054 25.2415 42.014C25.3515 42.6237 23.4267 45.1733 21.392 46.3373C12.9781 51.0486 5.27913 42.4574 7.7538 41.4597Z" fill="#084388"/>
<path d="M109.985 1.99539C109.985 1.44112 110.205 0.942271 110.59 0.55428C110.975 0.166289 111.47 -0.0554199 112.02 -0.0554199C112.57 -0.0554199 113.01 0.166289 113.395 0.55428C113.78 0.942271 114 1.44112 114 1.99539V3.54735C114 4.10162 113.78 4.60047 113.395 4.98846C113.01 5.37645 112.515 5.59816 111.965 5.59816C111.415 5.59816 110.975 5.37645 110.535 4.98846C110.15 4.60047 109.93 4.10162 109.93 3.54735V1.99539H109.985ZM109.985 11.3626C109.985 10.8083 110.205 10.3095 110.59 9.92148C110.975 9.53349 111.47 9.31178 112.02 9.31178C112.57 9.31178 113.01 9.53349 113.395 9.92148C113.78 10.3095 114 10.8083 114 11.3626V33.6998C114 34.254 113.78 34.7529 113.395 35.1409C113.01 35.5289 112.515 35.7506 111.965 35.7506C111.415 35.7506 110.975 35.5289 110.535 35.1409C110.15 34.7529 109.93 34.254 109.93 33.6998V11.3626H109.985ZM87.4383 11.3626C87.4383 10.8083 87.6583 10.3095 88.0432 9.92148C88.4281 9.53349 88.9231 9.31178 89.473 9.31178C90.0229 9.31178 90.4629 9.53349 90.9028 9.92148C91.2878 10.3095 91.5077 10.8083 91.5077 11.3626V26.3834C91.5077 27.1039 91.6727 27.8245 91.9477 28.4896C92.2226 29.1547 92.6076 29.7644 93.1575 30.2633C93.6525 30.7621 94.2574 31.2055 94.9173 31.4827C95.5772 31.7598 96.2921 31.9261 97.062 31.9261C97.7769 31.9261 98.4918 31.7598 99.2067 31.4827C99.8666 31.2055 100.472 30.8176 100.966 30.2633C101.461 29.7644 101.846 29.1547 102.176 28.4896C102.451 27.8245 102.616 27.1039 102.616 26.3834V11.3626C102.616 10.8083 102.836 10.3095 103.221 9.92148C103.606 9.53349 104.101 9.31178 104.651 9.31178C105.146 9.31178 105.641 9.53349 106.026 9.92148C106.411 10.3095 106.631 10.8083 106.631 11.3626V26.3834C106.631 27.7136 106.411 28.933 105.861 30.097C105.366 31.261 104.651 32.3141 103.826 33.1455C102.946 34.0323 101.956 34.6975 100.802 35.1963C99.6467 35.6952 98.3818 35.9169 97.117 35.9169C95.7972 35.9169 94.5323 35.6952 93.3775 35.1963C92.2226 34.6975 91.2328 34.0323 90.3529 33.1455C89.473 32.2587 88.8131 31.261 88.3182 30.097C87.8232 28.933 87.6033 27.7136 87.6033 26.3834V11.3626H87.4383ZM61.8666 12.1386C61.7567 11.8614 61.7017 11.5843 61.7017 11.3072C61.7017 10.8083 61.8666 10.3649 62.2516 9.92148C62.5815 9.47807 63.0765 9.31178 63.6814 9.31178C64.0664 9.31178 64.3963 9.42264 64.7263 9.64435C65.0562 9.86606 65.3312 10.1432 65.4962 10.5312L73.3051 28.8776L81.1691 10.5312C81.4991 9.69978 82.104 9.31178 82.9839 9.31178C83.5888 9.31178 84.0837 9.53349 84.4137 9.92148C84.7436 10.3649 84.9636 10.8083 84.9636 11.3072C84.9636 11.5843 84.9086 11.8614 84.7986 12.1386L75.1749 34.7529C74.7899 35.5843 74.185 35.9723 73.3601 35.9723C72.4252 35.9723 71.8203 35.5843 71.4904 34.7529L61.8666 12.1386Z" fill="#084388"/>
</g>
<defs>
<clipPath id="clip0">
<rect width="114" height="48" fill="white"/>
</clipPath>
</defs>
</svg>
